<?xml version="1.0" encoding="UTF-8" standalone="no"?>
<!DOCTYPE svg PUBLIC "-//W3C//DTD SVG 1.1//EN" "http://www.w3.org/Graphics/SVG/1.1/DTD/svg11.dtd">
<svg width="100%" height="100%" viewBox="0 0 66667 37500" version="1.1" xmlns="http://www.w3.org/2000/svg" xmlns:xlink="http://www.w3.org/1999/xlink" xml:space="preserve" xmlns:serif="http://www.serif.com/" style="fill-rule:evenodd;clip-rule:evenodd;stroke-linecap:round;stroke-linejoin:round;stroke-miterlimit:1.5;">
    <g transform="matrix(4.16667,0,0,4.16667,0,0)">
        <g transform="matrix(4.16667,0,0,4.16667,0,0)">
            <g transform="matrix(0.568981,-1.98375e-16,1.48025e-16,0.857336,291.01,221.08)">
                <path d="M550.549,276.723C551.724,276.153 553.375,276.324 554.233,277.104C555.091,277.884 554.834,278.98 553.658,279.549C540.395,286.562 525.887,287.761 512.668,285.991C497.198,283.92 483.621,277.564 475.567,271.621C460.828,260.409 462.913,248.761 469.494,235.941C472.585,229.919 476.726,223.628 480.074,216.938C484.345,208.404 487.388,199.197 484.821,189.023C482.522,179.912 475.729,170.072 461.665,159.237C454.395,153.629 449.447,148.926 447.27,145.103C444.996,141.109 445.339,137.75 447.839,134.941C450.259,132.223 455.212,129.793 463.77,128.21C481.243,124.979 516.849,124.504 577.576,125.669C581.01,125.73 582.428,127.59 582.335,129.869C582.242,132.148 580.673,133.989 577.239,133.928C518.538,132.945 484.115,133.269 467.243,136.429C463.013,137.221 460.147,137.942 458.955,139.289C458.591,139.699 458.621,140.176 458.759,140.705C458.995,141.604 459.593,142.573 460.432,143.642C462.66,146.482 466.474,149.776 471.478,153.626C487.488,165.957 495.009,177.236 497.602,187.609C500.521,199.286 497.213,209.871 492.222,219.644C488.792,226.36 484.603,232.68 481.321,238.698C475.862,248.71 472.811,257.839 484.012,266.871C490.452,272.226 501.653,277.987 514.688,280.387C525.881,282.448 538.4,282.105 550.549,276.723Z"/>
            </g>
            <g transform="matrix(-0.565736,8.26171e-17,-9.20168e-17,-0.857336,878.978,591.012)">
                <path d="M460.861,154.72C459.768,156.689 461.122,139.449 471.754,135.66C484.612,131.078 501.247,128.859 517.915,129.263C531.252,129.587 544.678,131.416 555.9,135.059C563.383,137.488 569.888,140.662 574.835,144.505C578.325,147.215 581.019,150.214 582.77,153.536C583.248,154.24 582.77,155.067 581.703,155.382C580.637,155.698 579.383,155.382 578.905,154.679C576.632,151.983 573.546,149.715 569.984,147.663C564.962,144.77 558.802,142.605 552.027,140.854C541.594,138.157 529.638,136.691 517.68,136.65C503.145,136.601 488.694,138.533 477.595,142.652C469.783,145.551 463.682,149.529 460.861,154.72Z"/>
            </g>
            <g transform="matrix(-0.568981,-1.98375e-16,-1.48025e-16,0.857336,952.037,221.08)">
                <path d="M553.658,279.549C554.834,278.98 555.091,277.884 554.233,277.104C553.375,276.324 551.724,276.153 550.549,276.723C538.4,282.105 525.881,282.448 514.688,280.387C501.653,277.987 490.452,272.226 484.012,266.871C472.811,257.839 475.862,248.71 481.321,238.698C484.603,232.68 488.792,226.36 492.222,219.644C497.213,209.871 500.521,199.286 497.602,187.609C495.009,177.236 487.488,165.957 471.478,153.626C466.474,149.776 462.659,146.482 460.432,143.642C459.593,142.573 458.995,141.604 458.759,140.705C458.621,140.176 458.591,139.699 458.955,139.289C460.147,137.942 463.013,137.221 467.243,136.429C483.576,133.37 516.355,132.969 571.683,133.838C573.511,133.866 573.918,125.6 572.124,125.568C514.707,124.535 480.713,125.077 463.77,128.21C455.212,129.793 450.259,132.223 447.839,134.941C445.339,137.75 444.996,141.109 447.27,145.103C449.447,148.926 454.395,153.629 461.665,159.237C475.729,170.072 482.522,179.912 484.821,189.023C487.388,199.197 484.345,208.404 480.074,216.938C476.726,223.628 472.585,229.919 469.494,235.941C462.913,248.761 460.828,260.409 475.567,271.621C483.621,277.564 497.198,283.92 512.668,285.991C525.887,287.761 540.395,286.562 553.658,279.549Z"/>
            </g>
            <g transform="matrix(0.565736,8.26171e-17,9.20168e-17,-0.857336,364.069,591.012)">
                <path d="M471.754,135.66C471.161,141.151 471.871,142.177 471.567,145.293C473.425,144.329 475.445,143.45 477.595,142.652C488.694,138.533 503.145,136.601 517.68,136.65C529.638,136.691 541.594,138.157 552.027,140.854C558.802,142.605 564.962,144.77 569.984,147.663C573.546,149.715 576.632,151.983 578.905,154.679C579.383,155.382 580.637,155.698 581.703,155.382C582.77,155.067 583.248,154.24 582.77,153.536C581.019,150.214 578.325,147.215 574.835,144.505C569.888,140.662 563.383,137.488 555.9,135.059C544.678,131.416 531.252,129.587 517.915,129.263C502.329,128.885 486.772,130.801 474.305,134.798C473.439,135.075 472.589,135.363 471.754,135.66Z"/>
            </g>
            <path d="M622.789,478.528C624.648,478 626.011,476.289 626.011,474.262C626.011,471.816 624.025,469.829 621.578,469.829L621.578,316.137L626.583,316.109C628.21,429.428 627.36,470.634 635.875,486.412L622.789,506.269L622.789,478.528ZM623.477,479.019L623.477,503.975L635.077,486.373C631.762,479.977 629.863,469.581 628.708,452.331C626.963,426.257 626.873,384.409 625.905,316.801L622.266,316.821L622.266,469.188C624.767,469.524 626.699,471.669 626.699,474.262C626.699,476.418 625.364,478.264 623.477,479.019Z" style="stroke:black;stroke-width:1.25px;"/>
            <path d="M620.368,506.253L607.403,486.412C615.918,470.634 615.068,429.454 616.695,316.136L621.578,316.137L621.578,469.829C619.132,469.829 617.145,471.816 617.145,474.262C617.145,476.289 618.509,478 620.368,478.528L620.368,506.253Z" style="stroke:black;stroke-width:1.25px;"/>
            <g transform="matrix(0.948942,0,0,1.08811,416.298,51.1921)">
                <path d="M218.521,213.691C218.521,214.748 217.538,215.606 216.326,215.606C215.114,215.606 214.13,214.748 214.13,213.691C214.16,209.867 215.828,207.323 218.205,205.808C220.795,204.157 224.337,203.71 227.851,204.398C233.767,205.555 239.503,209.866 239.834,215.974C240.302,224.839 239.299,232.217 236.159,237.096C233.214,241.672 228.498,244.24 221.402,243.97L211.24,243.727C207.944,243.625 205.553,243.439 203.45,243.769C201.952,244.004 200.613,244.507 199.174,245.531C197.325,246.832 197.26,248.281 198.351,249.05C199.477,249.845 201.461,249.887 203.414,248.594C203.723,248.377 204.176,248.419 204.425,248.688C204.675,248.958 204.626,249.353 204.317,249.57C201.71,251.516 198.896,251.344 197.247,250.317C195.252,249.075 194.659,246.499 197.72,244.056C199.444,242.695 201.089,242.002 202.945,241.627C205.174,241.177 207.742,241.241 211.273,241.203L221.509,241.151C227.095,241.26 230.788,239.233 233.028,235.596C235.812,231.075 236.469,224.285 235.892,216.16C235.584,211.732 231.269,208.74 226.966,207.951C224.7,207.535 222.403,207.726 220.754,208.807C219.323,209.745 218.504,211.366 218.521,213.691Z"/>
            </g>
            <g transform="matrix(0.948942,0,0,1.08811,416.298,51.1921)">
                <path d="M213.9,243.037C213.819,227.77 212.135,218.659 211.633,210.049C212.88,210.051 219.924,209.938 221.069,209.936C221.082,215.883 219.205,227.159 219.333,242.873" style="stroke:black;stroke-width:4.08px;stroke-linecap:butt;"/>
            </g>
        </g>
    </g>
</svg>
